Land_normalized_Motion_pl14
version=1
nRows=10
nColumns=43
inDegrees=yes
endheader
time		pelvis_tilt		pelvis_list		pelvis_rotation		pelvis_tx		pelvis_ty		pelvis_tz		hip_flexion_r		hip_adduction_r		hip_rotation_r		knee_angle_r		ankle_angle_r		subtalar_angle_r		mtp_angle_r		hip_flexion_l		hip_adduction_l		hip_rotation_l		knee_angle_l		ankle_angle_l		subtalar_angle_l		mtp_angle_l		lumbar_extension		lumbar_bending		lumbar_rotation		neck_flexion		neck_lateral_bending		neck_rotation		arm_flex_r		arm_add_r		arm_rot_r		elbow_flex_r		pro_sup_r		wrist_flex_r		wrist_dev_r		hand_finger_flex_r		arm_flex_l		arm_add_l		arm_rot_l		elbow_flex_l		pro_sup_l		wrist_flex_l		wrist_dev_l		hand_finger_flex_l		
0.970000		-0.980172		10.396446		87.189611		0.008608		0.652368		0.572850		64.649440		0.806563		-0.034652		-105.917285		9.775400		-0.708693		28.746294		60.223927		-7.835014		-0.806752		-105.204115		12.915521		9.491309		29.121122		-54.557730		-4.885809		-3.998241		-6.342949		-0.315778		3.459663		-18.924861		-19.425234		-18.798355		59.879354		112.084888		-11.846933		-1.237039		17.185037		-21.681401		-17.362736		-29.844363		65.726521		94.488390		-15.729285		-8.667596		20.008729		
0.973106		-0.996854		10.959397		87.159622		0.008813		0.645991		0.571377		64.850365		0.781107		0.245841		-107.186935		10.245469		0.686780		30.157532		60.312958		-8.057843		-0.772538		-106.461219		13.496164		10.213183		29.553486		-55.786853		-4.947838		-4.030797		-5.496589		-0.357038		3.308340		-16.554758		-19.970735		-17.302944		60.332377		112.370039		-12.575542		-0.999522		17.635030		-19.655617		-18.173571		-28.893122		66.164505		94.357566		-16.367210		-8.195606		19.175471		
0.976212		-0.956812		11.199066		87.222202		0.008815		0.638951		0.569845		65.426366		0.763176		0.380391		-108.471888		10.418652		1.188446		30.664322		60.862042		-8.207812		-0.644427		-107.763982		13.737041		10.334374		29.701847		-56.587252		-4.872816		-3.978424		-4.821937		-0.383646		3.113345		-14.258957		-20.462865		-16.118747		60.740753		112.680716		-12.470553		-0.996691		17.857111		-17.571187		-19.009194		-27.957183		66.429755		94.527633		-16.254440		-7.959457		19.145504		
0.979318		-0.863235		11.490374		87.348577		0.008504		0.632033		0.568171		65.894182		0.686887		0.507214		-109.757738		10.759090		2.158984		31.540381		61.371666		-8.299677		-0.444411		-109.098349		14.074057		10.592048		29.951837		-57.381722		-4.668551		-3.953443		-4.228199		-0.484698		2.902390		-11.977463		-21.118470		-14.683262		61.229721		113.156492		-12.538218		-0.927738		18.163212		-15.569241		-19.835409		-26.910606		66.774378		94.756177		-16.307839		-7.584067		19.185218		
0.982424		-0.738214		11.791774		87.618769		0.007724		0.625381		0.566411		66.263583		0.449108		0.605810		-110.994465		11.242075		3.499997		33.210422		61.891021		-8.236546		-0.154125		-110.406723		14.424119		10.905959		30.489052		-58.133323		-4.285274		-3.991291		-3.785139		-0.655379		2.825274		-9.576622		-21.695849		-13.280199		61.610750		113.737232		-13.029250		-0.643131		18.727050		-13.471938		-20.408719		-26.044119		67.080371		95.018543		-16.830854		-7.062284		19.594419		
0.985530		-0.687740		12.030529		87.771291		0.007292		0.618694		0.564652		66.780334		0.345429		0.724637		-112.267273		11.387378		3.931024		33.693276		62.450467		-8.299771		-0.038296		-111.683427		14.605621		10.929322		30.677320		-58.785050		-4.077829		-3.945347		-3.243479		-0.753633		2.737944		-7.256312		-22.243835		-12.060866		62.029130		114.169105		-12.793614		-0.682226		19.000736		-11.344062		-21.129978		-25.058438		67.301625		95.354363		-16.767936		-6.880457		19.901825		
0.988636		-0.538400		12.325507		88.029864		0.006452		0.611994		0.562795		67.213487		0.106864		0.761200		-113.544482		11.639157		5.014742		34.702767		63.024033		-8.298158		0.208257		-113.028797		14.846365		11.017656		31.102764		-59.417479		-3.648373		-3.982442		-2.909629		-1.018310		2.644409		-4.888778		-23.004365		-10.466562		62.548489		114.916808		-12.755352		-0.637530		19.500265		-9.404881		-21.828816		-24.039461		67.681202		95.920883		-17.140560		-6.620570		20.583916		
0.991742		-0.421973		12.559337		88.155392		0.005973		0.605365		0.560998		67.756513		-0.019500		0.802244		-114.814656		11.761134		5.843177		35.483185		63.635473		-8.444632		0.341346		-114.328015		15.023337		11.096625		31.526158		-59.965829		-3.373471		-3.960255		-2.527126		-1.257910		2.648254		-2.445526		-23.658611		-8.951536		62.969643		115.632496		-12.682783		-0.625320		19.966709		-7.409382		-22.479081		-23.083230		68.026397		96.580264		-17.636473		-6.461975		21.317195		
0.994848		-0.388260		12.758051		88.193155		0.005900		0.598909		0.559357		68.380990		-0.087638		0.842349		-116.055587		11.765345		6.240525		35.859025		64.241214		-8.686020		0.349329		-115.554706		15.146152		11.142633		31.747828		-60.507593		-3.278386		-3.857163		-1.932371		-1.391985		2.654203		-0.060450		-24.183675		-7.698698		63.408431		116.121129		-12.441182		-0.711504		20.250506		-5.267621		-23.167384		-22.091811		68.338282		97.051038		-17.712500		-6.369149		21.741107		
0.997955		-0.252706		12.858646		87.962814		0.006357		0.592046		0.557708		69.193091		0.133142		0.860878		-117.279759		11.662140		6.871238		36.542520		65.003731		-9.288116		0.366606		-116.877198		15.276615		11.330502		32.237753		-60.848136		-3.311473		-3.686288		-1.617049		-1.667074		2.705173		2.460292		-24.832706		-6.013118		63.815480		116.889622		-12.484119		-0.726419		20.738095		-3.372398		-23.883578		-21.088508		68.788281		97.979941		-18.506592		-6.282463		22.580018		
